<svg width="240" height="240" viewBox="0 0 240 240" fill="none" xmlns="http://www.w3.org/2000/svg">
<g clip-path="url(#clip0_202_19)">
<rect width="240" height="240" fill="white"/>
<rect width="30" height="30" fill="#D9D9D9"/>
<rect x="210" width="30" height="30" fill="#D9D9D9"/>
<rect x="30" width="20" height="30" fill="#E78E8E"/>
<rect y="30" width="30" height="20" fill="#E78E8E"/>
<rect y="50" width="30" height="20" fill="#E78E8E"/>
<rect y="70" width="30" height="20" fill="#E78E8E"/>
<rect y="90" width="30" height="20" fill="#E78E8E"/>
<rect y="110" width="30" height="20" fill="#E78E8E"/>
<rect y="130" width="30" height="20" fill="#E78E8E"/>
<rect y="150" width="30" height="20" fill="#E78E8E"/>
<rect y="170" width="30" height="20" fill="#E78E8E"/>
<rect y="190" width="30" height="20" fill="#E78E8E"/>
<rect x="210" y="30" width="30" height="20" fill="#E78E8E"/>
<rect x="210" y="50" width="30" height="20" fill="#E78E8E"/>
<rect x="210" y="70" width="30" height="20" fill="#E78E8E"/>
<rect x="210" y="90" width="30" height="20" fill="#E78E8E"/>
<rect x="210" y="110" width="30" height="20" fill="#E78E8E"/>
<rect x="210" y="130" width="30" height="20" fill="#E78E8E"/>
<rect x="210" y="150" width="30" height="20" fill="#E78E8E"/>
<rect x="210" y="170" width="30" height="20" fill="#E78E8E"/>
<rect x="210" y="190" width="30" height="20" fill="#E78E8E"/>
<rect x="50" width="20" height="30" fill="#E78E8E"/>
<rect x="70" width="20" height="30" fill="#E78E8E"/>
<rect x="90" width="20" height="30" fill="#E78E8E"/>
<rect x="110" width="20" height="30" fill="#E78E8E"/>
<rect x="130" width="20" height="30" fill="#E78E8E"/>
<rect x="150" width="20" height="30" fill="#E78E8E"/>
<rect x="170" width="20" height="30" fill="#E78E8E"/>
<rect x="190" width="20" height="30" fill="#E78E8E"/>
<rect y="210" width="30" height="30" fill="#D9D9D9"/>
<rect x="210" y="210" width="30" height="30" fill="#D9D9D9"/>
<rect x="30" y="210" width="20" height="30" fill="#E78E8E"/>
<rect x="50" y="210" width="20" height="30" fill="#E78E8E"/>
<rect x="70" y="210" width="20" height="30" fill="#E78E8E"/>
<rect x="90" y="210" width="20" height="30" fill="#E78E8E"/>
<rect x="110" y="210" width="20" height="30" fill="#E78E8E"/>
<rect x="130" y="210" width="20" height="30" fill="#E78E8E"/>
<rect x="150" y="210" width="20" height="30" fill="#E78E8E"/>
<rect x="170" y="210" width="20" height="30" fill="#E78E8E"/>
<rect x="190" y="210" width="20" height="30" fill="#E78E8E"/>
</g>
<defs>
<clipPath id="clip0_202_19">
<rect width="240" height="240" fill="white"/>
</clipPath>
</defs>
</svg>
